# xmcd
#
# Track frame offsets:
#	150
#	16694
#	35822
#	49068
#	65761
#
# Disc length: 1169 seconds
#
# Revision: 0
# Processed by: cddbd v1.5.1PL0 Copyright (c) Steve Scherf et al.
# Submitted via: dBpowerAMP V4.0
#
DISCID=3e048f05
DTITLE=The Drew David Band - The Drew Davis Band CD EP
DYEAR=2004
DGENRE=Country
TTITLE0=Let Me Be The One
TTITLE1=Hopin' She'll Say Yes
TTITLE2=One Picture
TTITLE3=That's Love
TTITLE4=Just Because
EXTD=
EXTT0=
EXTT1=
EXTT2=
EXTT3=
EXTT4=
PLAYORDER=
